<svg version="1.1" xmlns="http://www.w3.org/2000/svg" xmlns:xlink="http://www.w3.org/1999/xlink" width="46.13627" height="31.99501" viewBox="0,0,46.13627,31.99501"><g transform="translate(-226.31086,-168.74598)"><g stroke-miterlimit="10"><path d="M233.73688,198.86599v-26.81222h26.81222v26.81222z" fill="#940000" stroke="#ffffff" stroke-width="3.75"/><path d="M240.98715,184.41824c0,-0.69036 0.55964,-1.25 1.25,-1.25c0.69036,0 1.25,0.55964 1.25,1.25c0,0.69036 -0.55964,1.25 -1.25,1.25c-0.69036,0 -1.25,-0.55964 -1.25,-1.25z" fill="#ffffff" stroke="none" stroke-width="0.5"/><path d="M250.75942,184.41823c0,-0.69036 0.55964,-1.25 1.25,-1.25c0.69036,0 1.25,0.55964 1.25,1.25c0,0.69036 -0.55964,1.25 -1.25,1.25c-0.69036,0 -1.25,-0.55964 -1.25,-1.25z" fill="#ffffff" stroke="none" stroke-width="0.5"/><path d="M246.59276,177.49098c0.88388,0.88388 0,1.76776 0,1.76776l0.01955,-0.16248c-0.34472,0.85753 -0.99221,2.80821 -1.8991,3.15661c-0.68239,0.26215 -4.13914,-0.9532 -4.99368,-1.10164c-4.23277,-0.73524 -8.50188,-1.69372 -12.56119,-3.14219c0,0 -1.17718,-0.42042 -0.75676,-1.59759c0.42042,-1.17718 1.5976,-0.75676 1.5976,-0.75676c3.91765,1.40045 8.04203,2.31857 12.12663,3.02978c0.90359,0.15733 3.07722,1.18082 3.74992,1.21285c0.59223,0.0282 0.19624,-1.17861 0.41539,-1.72953l0.53388,-0.67681c0,0 0.88388,-0.88388 1.76776,0z" fill="#ffffff" stroke="none" stroke-width="0.5"/><path d="M248.52832,175.47004c0.97609,-0.78087 1.75696,0.19522 1.75696,0.19522l0.74419,1.09488c0.10497,0.38957 0.28854,2.91551 0.79167,3.15057c0.39755,0.18572 3.4715,-1.74662 3.99747,-2.00916c1.93177,-0.96424 4.11831,-1.37892 5.99869,-2.4194c3.06049,-1.69349 5.8218,-4.30126 8.58347,-6.45183c0,0 0.98669,-0.76743 1.75412,0.21927c0.76743,0.98669 -0.21927,1.75412 -0.21927,1.75412c-2.86552,2.2262 -5.72326,4.92321 -8.90375,6.66358c-1.92597,1.05389 -4.12188,1.48192 -6.08805,2.46673c-1.45696,0.72976 -4.34537,2.84771 -6.03196,2.10549c-2.14073,-0.94208 -1.79985,-3.03354 -2.29431,-4.82155l-0.28446,-0.19094c0,0 -0.78087,-0.97609 0.19522,-1.75696z" fill="#ffffff" stroke="none" stroke-width="0.5"/><path d="M254.67382,190.84736c0,1.25 -1.25,1.25 -1.25,1.25l-0.3766,-0.00003c-4.10126,0.02999 -8.0284,0.48616 -12.1001,0.89391c0,0 -1.2438,0.12438 -1.36818,-1.11942c-0.12438,-1.2438 1.11942,-1.36818 1.11942,-1.36818c4.14685,-0.41408 8.15304,-0.87565 12.33057,-0.90625l0.39489,-0.00003c0,0 1.25,0 1.25,1.25z" fill="#ffffff" stroke="none" stroke-width="0.5"/></g></g></svg>